# xmcd
# 
# Track frame offsets:
#     150
#     16140
#     34245
#     54206
#     70966
#     87718
#     100833
#     125761
#     148161
#     170975
#     188720
# 
# Disc length: 2834
# 
# Revision: 1
# Processed by: cddbd v1.5.2PL0 Copyright (c) Steve Scherf et al.
# Submitted via: fre:ac v1.0.31
# 
DISCID=a00b100b
DTITLE=Jeff Healey Band - House On Fire
DYEAR=2013
DGENRE=Rock/Pop
TTITLE0=House On Fire
TTITLE1=Who's Been Sleepin' In My Bed
TTITLE2=You Go Your Way (I'll Go Mine)
TTITLE3=All The Way
TTITLE4=We've Got Tonite
TTITLE5=Bish Bang Boof
TTITLE6=Too Late Now
TTITLE7=Face Up
TTITLE8=Adam Raised A Cain
TTITLE9=Daze Of The Night
TTITLE10=Joined At The Heart
EXTD=
EXTT0=
EXTT1=
EXTT2=
EXTT3=
EXTT4=
EXTT5=
EXTT6=
EXTT7=
EXTT8=
EXTT9=
EXTT10=
PLAYORDER=
